<svg width="138" height="24" viewBox="0 0 138 24" fill="none" xmlns="http://www.w3.org/2000/svg">
<g id="Frame 3">
<g id="Vector">
<path d="M0.5 23.638V0.37063H9.78302C11.2926 0.37063 12.5939 0.637824 13.6867 1.1679C14.7796 1.69798 15.6173 2.44784 16.1957 3.41319C16.774 4.37853 17.0632 5.51195 17.0632 6.82206C17.0632 8.13217 16.774 9.27851 16.1957 10.2611C15.6173 11.248 14.7796 12.0108 13.6867 12.5538C12.5939 13.0968 11.2926 13.3683 9.78302 13.3683H2.00961V23.638H0.5ZM2.00961 11.9375H9.71498C11.5945 11.9375 13.0319 11.4721 14.0269 10.5412C15.022 9.61035 15.5195 8.36919 15.5195 6.81775C15.5195 5.2663 15.022 4.09841 14.0269 3.17616C13.0319 2.25822 11.5945 1.7971 9.71498 1.7971H2.00961V11.9375Z" fill="white"/>
<path d="M24.4071 23.9698C23.2249 23.9698 22.1873 23.763 21.29 23.3536C20.3928 22.9442 19.6954 22.3667 19.1894 21.6254C18.6876 20.8842 18.4367 20.0266 18.4367 19.0483C18.4367 17.54 19.015 16.329 20.1759 15.4067C21.3326 14.4888 22.8762 14.0277 24.8025 14.0277C26.7289 14.0277 28.4299 14.506 29.9182 15.4584V12.7348C29.9182 11.2264 29.5142 10.106 28.7063 9.3604C27.8983 8.61915 26.7374 8.24853 25.2278 8.24853C24.4836 8.24853 23.7097 8.36919 22.8975 8.61484C22.0895 8.86049 21.1582 9.25697 20.1079 9.8129L19.4828 8.51572C20.5119 7.98564 21.4942 7.58916 22.4339 7.3349C23.3737 7.08063 24.3135 6.95135 25.2533 6.95135C27.2009 6.95135 28.702 7.42109 29.7609 8.36489C30.8197 9.30868 31.3513 10.6748 31.3513 12.4676V23.6337H29.9097V21.8064C29.1655 22.4917 28.3363 23.026 27.4178 23.401C26.4993 23.7759 25.4914 23.9655 24.3986 23.9655L24.4071 23.9698ZM19.8825 19.0181C19.8825 20.0826 20.3205 20.9575 21.1922 21.6427C22.0682 22.3279 23.1696 22.6727 24.5049 22.6727C25.6615 22.6727 26.6821 22.4701 27.5539 22.0564C28.4299 21.647 29.2165 21.0652 29.9139 20.311V16.9194C29.191 16.3678 28.4043 15.954 27.5539 15.6912C26.6991 15.424 25.7296 15.2904 24.6367 15.2904C23.2164 15.2904 22.0682 15.6351 21.1922 16.3204C20.3162 17.0056 19.8825 17.9063 19.8825 19.0138V19.0181Z" fill="white"/>
<path d="M35.7908 23.6035V7.24871H37.2323V9.84307C37.6916 8.93375 38.321 8.21836 39.1162 7.70121C39.9156 7.17975 40.8171 6.92118 41.8207 6.92118C42.2587 6.92118 42.7265 6.96427 43.2325 7.05478V8.5502C42.9901 8.4597 42.752 8.39936 42.5096 8.36919C42.2672 8.33472 42.0376 8.31748 41.8207 8.31748C40.7491 8.31748 39.8263 8.64501 39.0481 9.30006C38.2699 9.95512 37.6661 10.8989 37.2281 12.1401V23.6078H35.7865L35.7908 23.6035Z" fill="white"/>
<path d="M49.8918 23.9698C48.7096 23.9698 47.672 23.763 46.7748 23.3536C45.8775 22.9442 45.1801 22.3667 44.6741 21.6254C44.1723 20.8842 43.9214 20.0266 43.9214 19.0483C43.9214 17.54 44.4997 16.329 45.6606 15.4067C46.8173 14.4888 48.3609 14.0277 50.2873 14.0277C52.2136 14.0277 53.9146 14.506 55.4029 15.4584V12.7348C55.4029 11.2264 54.9989 10.106 54.191 9.3604C53.383 8.61915 52.2221 8.24853 50.7125 8.24853C49.9683 8.24853 49.1944 8.36919 48.3822 8.61484C47.5742 8.86049 46.6429 9.25697 45.5926 9.8129L44.9675 8.51572C45.9966 7.98564 46.9789 7.58916 47.9187 7.3349C48.8584 7.08063 49.7982 6.95135 50.738 6.95135C52.6856 6.95135 54.1867 7.42109 55.2456 8.36489C56.3044 9.30868 56.836 10.6748 56.836 12.4676V23.6337H55.3944V21.8064C54.6502 22.4917 53.821 23.026 52.9025 23.401C51.984 23.7759 50.9761 23.9655 49.8833 23.9655L49.8918 23.9698ZM45.3672 19.0181C45.3672 20.0826 45.8052 20.9575 46.677 21.6427C47.553 22.3279 48.6543 22.6727 49.9896 22.6727C51.1462 22.6727 52.1668 22.4701 53.0386 22.0564C53.9146 21.647 54.7013 21.0652 55.3987 20.311V16.9194C54.6758 16.3678 53.889 15.954 53.0386 15.6912C52.1838 15.424 51.2143 15.2904 50.1214 15.2904C48.7011 15.2904 47.553 15.6351 46.677 16.3204C45.801 17.0056 45.3672 17.9063 45.3672 19.0138V19.0181Z" fill="white"/>
<path d="M61.2372 23.638V0.37063L62.6788 0.00431666V23.638H61.2372Z" fill="white"/>
<path d="M67.1438 23.638V0.37063L68.5854 0.00431666V23.638H67.1438Z" fill="white"/>
<path d="M80.3263 23.9698C78.838 23.9698 77.4857 23.5949 76.261 22.8407C75.0363 22.0866 74.0667 21.0695 73.3566 19.7809C72.6464 18.4967 72.2892 17.0573 72.2892 15.4584C72.2892 13.8596 72.6337 12.4245 73.3226 11.1359C74.0115 9.85169 74.9555 8.83032 76.1589 8.07614C77.3624 7.32197 78.7061 6.94704 80.1945 6.94704C81.5935 6.94704 82.8395 7.32628 83.9324 8.07614C85.0252 8.83032 85.8927 9.83445 86.5391 11.0842C87.1854 12.3383 87.5086 13.726 87.5086 15.2559V15.8549H73.7648C73.8286 17.1176 74.1603 18.2554 74.7471 19.2638C75.3382 20.2722 76.1207 21.0738 77.0902 21.6728C78.064 22.2719 79.1399 22.5692 80.3221 22.5692C81.2406 22.5692 82.1463 22.4184 83.0436 22.121C83.9409 21.8237 84.7063 21.4186 85.3399 20.91L86.1946 22.0736C85.3186 22.7158 84.3916 23.1941 83.4051 23.5044C82.4227 23.8147 81.3937 23.9698 80.3221 23.9698H80.3263ZM73.8329 14.4629H85.9693C85.8587 13.3338 85.544 12.3081 85.0167 11.3902C84.4937 10.4723 83.8133 9.73533 82.9841 9.17939C82.1548 8.62777 81.2108 8.34765 80.1647 8.34765C79.0506 8.34765 78.0385 8.61484 77.1327 9.14492C76.227 9.67499 75.4828 10.4033 74.9045 11.3213C74.3261 12.2392 73.9689 13.2864 73.8371 14.4629H73.8329Z" fill="white"/>
<path d="M91.0509 23.638V0.37063L92.4925 0.00431666V23.638H91.0509Z" fill="white"/>
<path d="M106.73 24C105.109 24 103.685 23.7328 102.452 23.2027C101.214 22.6727 100.253 21.9271 99.5642 20.9747C98.8753 20.0223 98.5309 18.9492 98.5309 17.7511C98.5309 16.7341 98.7775 15.7903 99.2708 14.924C99.7641 14.0621 100.427 13.3123 101.274 12.6788C102.116 12.0453 103.081 11.5971 104.178 11.3342C103.302 10.8903 102.626 10.3042 102.145 9.57156C101.665 8.83893 101.423 8.03304 101.423 7.14527C101.423 5.77052 101.805 4.5466 102.571 3.47351C103.336 2.40043 104.365 1.55145 105.654 0.930867C106.942 0.310289 108.367 0 109.919 0C111.382 0 112.662 0.258574 113.755 0.780032C114.847 1.30149 115.702 2.00826 116.314 2.90896C116.927 3.80535 117.233 4.8181 117.233 5.95152C117.233 6.86084 117.025 7.7012 116.608 8.47693C116.191 9.25265 115.613 9.93787 114.869 10.5369C114.124 11.1359 113.274 11.5798 112.309 11.8642C113.338 12.3081 114.171 12.9503 114.818 13.7906C115.464 14.631 115.787 15.5877 115.787 16.6479C115.787 18.0442 115.379 19.2939 114.558 20.4058C113.738 21.5134 112.649 22.3882 111.297 23.0303C109.94 23.6725 108.422 23.9957 106.738 23.9957L106.73 24ZM107.057 20.3757C107.933 20.3757 108.703 20.2162 109.37 19.893C110.038 19.5741 110.565 19.1216 110.961 18.5484C111.356 17.9709 111.552 17.3288 111.552 16.622C111.552 15.9799 111.377 15.4153 111.029 14.9284C110.68 14.4414 110.2 14.0492 109.587 13.7475C108.975 13.4502 108.243 13.2993 107.389 13.2993C106.534 13.2993 105.769 13.4674 105.092 13.7992C104.416 14.1311 103.872 14.575 103.468 15.1266C103.064 15.6825 102.86 16.3117 102.86 17.0228C102.86 17.6649 103.034 18.2381 103.383 18.7337C103.732 19.2336 104.221 19.6301 104.841 19.9318C105.467 20.2291 106.202 20.38 107.057 20.38V20.3757ZM109.06 10.0715C109.783 10.0715 110.438 9.91632 111.029 9.60603C111.62 9.29574 112.096 8.8691 112.458 8.32609C112.819 7.78309 112.998 7.19267 112.998 6.54624C112.998 5.99461 112.862 5.48177 112.589 5.01634C112.317 4.55091 111.917 4.1889 111.394 3.93464C110.871 3.68037 110.246 3.55109 109.523 3.55109C108.8 3.55109 108.141 3.71054 107.538 4.03376C106.934 4.35698 106.449 4.78793 106.079 5.33094C105.705 5.87395 105.522 6.47729 105.522 7.14096C105.522 7.69689 105.675 8.19249 105.981 8.63638C106.287 9.08027 106.704 9.42934 107.227 9.68361C107.75 9.93787 108.362 10.0672 109.064 10.0672L109.06 10.0715Z" fill="#F5841F"/>
<path d="M126.997 24C125.376 24 123.952 23.7328 122.719 23.2027C121.481 22.6727 120.52 21.9271 119.831 20.9747C119.142 20.0223 118.798 18.9492 118.798 17.7511C118.798 16.7341 119.045 15.7903 119.538 14.924C120.031 14.0621 120.694 13.3123 121.541 12.6788C122.383 12.0453 123.348 11.5971 124.445 11.3342C123.569 10.8903 122.893 10.3042 122.412 9.57156C121.932 8.83893 121.69 8.03304 121.69 7.14527C121.69 5.77052 122.072 4.5466 122.838 3.47351C123.603 2.40043 124.632 1.55145 125.921 0.930867C127.209 0.310289 128.634 1.77391e-10 130.186 1.77391e-10C131.649 1.77391e-10 132.929 0.258574 134.022 0.780032C135.114 1.30149 135.969 2.00826 136.581 2.90896C137.194 3.80535 137.5 4.8181 137.5 5.95152C137.5 6.86084 137.292 7.7012 136.875 8.47693C136.458 9.25265 135.88 9.93787 135.136 10.5369C134.391 11.1359 133.541 11.5798 132.576 11.8642C133.605 12.3081 134.438 12.9503 135.085 13.7906C135.731 14.631 136.054 15.5877 136.054 16.6479C136.054 18.0442 135.646 19.2939 134.825 20.4058C134.005 21.5134 132.916 22.3882 131.564 23.0303C130.207 23.6725 128.689 23.9957 127.005 23.9957L126.997 24ZM127.324 20.3757C128.2 20.3757 128.97 20.2162 129.637 19.893C130.305 19.5741 130.832 19.1216 131.228 18.5484C131.623 17.9709 131.819 17.3288 131.819 16.622C131.819 15.9799 131.644 15.4153 131.296 14.9284C130.947 14.4414 130.467 14.0492 129.854 13.7475C129.242 13.4502 128.51 13.2993 127.656 13.2993C126.801 13.2993 126.035 13.4674 125.359 13.7992C124.683 14.1311 124.139 14.575 123.735 15.1266C123.331 15.6825 123.127 16.3117 123.127 17.0228C123.127 17.6649 123.301 18.2381 123.65 18.7337C123.999 19.2336 124.488 19.6301 125.108 19.9318C125.734 20.2291 126.469 20.38 127.324 20.38V20.3757ZM129.327 10.0715C130.05 10.0715 130.705 9.91632 131.296 9.60603C131.887 9.29574 132.363 8.8691 132.725 8.32609C133.086 7.78309 133.265 7.19267 133.265 6.54624C133.265 5.99461 133.129 5.48177 132.856 5.01634C132.584 4.55091 132.184 4.1889 131.661 3.93464C131.138 3.68037 130.513 3.55109 129.79 3.55109C129.067 3.55109 128.408 3.71054 127.805 4.03376C127.201 4.35698 126.716 4.78793 126.346 5.33094C125.972 5.87395 125.789 6.47729 125.789 7.14096C125.789 7.69689 125.942 8.19249 126.248 8.63638C126.554 9.08027 126.971 9.42934 127.494 9.68361C128.017 9.93787 128.629 10.0672 129.331 10.0672L129.327 10.0715Z" fill="#F5841F"/>
</g>
</g>
</svg>
